<?xml version="1.0" encoding="UTF-8"?>
<!DOCTYPE svg PUBLIC "-//W3C//DTD SVG 1.1//EN" "http://www.w3.org/Graphics/SVG/1.1/DTD/svg11.dtd">
<!-- Creator: CorelDRAW 2018 (64-Bit) -->
<svg xmlns="http://www.w3.org/2000/svg" xml:space="preserve" width="122.86mm" height="122.86mm" version="1.1" style="shape-rendering:geometricPrecision; text-rendering:geometricPrecision; image-rendering:optimizeQuality; fill-rule:evenodd; clip-rule:evenodd"
viewBox="0 0 5959.44 5959.44"
 xmlns:xlink="http://www.w3.org/1999/xlink">
 <defs>
  <style type="text/css">
   <![CDATA[
    .fil0 {fill:none}
    .fil9 {fill:#FEFEFE}
    .fil8 {fill:#6B7CBB}
    .fil7 {fill:#314E9C}
    .fil1 {fill:#12419A}
    .fil3 {fill:#88A0CD}
    .fil2 {fill:#C4D0E6}
    .fil4 {fill:#F1F1F2}
    .fil6 {fill:#FEFEFE;fill-rule:nonzero}
    .fil5 {fill:#88A0CD;fill-rule:nonzero}
   ]]>
  </style>
 </defs>
 <g id="Слой_x0020_1">
  <metadata id="CorelCorpID_0Corel-Layer"/>
  <g id="_2027049316256">
   <rect class="fil0" x="-0" y="-0" width="5959.44" height="5959.44"/>
   <g>
    <polygon class="fil1" points="1820.15,1845.3 4870.71,2032.08 5025.07,5354.97 1785.75,4645.17 "/>
    <polygon class="fil2" points="3874.84,5846.52 5025.07,5354.96 3928.74,5116.24 "/>
    <polygon class="fil2" points="1820.15,1845.3 1888.97,1973.1 1785.75,4645.17 "/>
    <polygon class="fil3" points="5025.07,5354.97 4870.71,2032.08 3932.83,2150.06 3928.73,5116.41 "/>
    <polygon class="fil2" points="4140.28,2317.18 3932.83,2150.06 3925.5,5160.19 "/>
    <polygon class="fil3" points="1034.65,1973.1 1888.97,1973.1 1785.75,4645.17 934.38,4696.88 "/>
    <polygon class="fil4" points="1034.65,1973.1 4140.28,2317.18 3874.84,5846.52 934.38,4696.88 "/>
    <path class="fil5" d="M1875.63 2445.56c-16.17,-26.14 -5.71,-59.13 23.38,-73.67 29.08,-14.54 65.78,-5.13 81.95,21.02 15.77,25.39 23.52,66.88 33.64,121.13 30.34,162.51 86.21,461.8 397.11,521.11 137.36,26.3 240.79,2.31 333.75,-77.18 102.32,-87.5 196.12,-240.14 306.54,-462.72 13.57,-27.32 49.2,-39.58 79.59,-27.38 30.39,12.19 44.03,44.23 30.46,71.55 -116.67,235.19 -218.03,398.4 -333.46,497.1 -124.8,106.71 -261.74,139.28 -441.92,104.78 -391.27,-74.64 -455.98,-421.23 -491.11,-609.43 -8.19,-43.92 -14.46,-77.5 -19.94,-86.31z"/>
    <path class="fil3" d="M1446.57 3174.58c342.24,62.33 684.91,124.47 1027.16,186.57 342.45,62.14 685.12,124.24 1027.79,186.37 -1.69,23.48 -3.43,46.75 -5.08,70.22 -12.54,178.67 -85.68,328.03 -193.15,421.55 -106.21,92.43 -247.97,129.11 -397.94,91.62 -156.69,-39.17 -313.84,-78.42 -470.37,-117.59 -156.48,-39.15 -313.63,-78.43 -470.16,-117.59 -149.91,-37.5 -282.77,-133.07 -377.61,-253.89 -93.85,-119.56 -149.93,-264.9 -143.38,-410.13 0.86,-19.11 1.69,-38.02 2.76,-57.14zm1927.87 928.29c48.29,87.88 74.24,193.44 66.71,299.38 -29.43,414.26 -72.41,816.43 -114.28,1230.03 -665.62,-260.24 -1363.88,-533.24 -1952.15,-763.24 12.5,-330.43 25.28,-667.99 40.28,-999.7 3.89,-86.01 39.61,-157.48 96.15,-206.31 109.07,149.8 268.53,269.11 449.2,316.01 156.28,40.57 313.02,81.01 469.52,121.54 156.3,40.48 313.04,81.16 469.52,121.75 180.68,46.87 350.29,-1.66 475.03,-119.46z"/>
    <g>
     <g>
      <path class="fil6" d="M2445.52 4737.57c-3.99,-8.3 -5.5,-16.73 -4.75,-27.2 0.38,-4.86 1.33,-9.19 3.23,-13.66 1.71,-4.34 3.79,-8.05 6.07,-10.86 1.71,-1.53 2.28,-1.53 4.93,-0.64 4.74,1.41 5.12,2.43 5.88,4.22 3.99,7.4 5.32,16.72 4.37,28.6 -0.57,7.79 -2.09,14.3 -4.93,19.8 0,0.13 0,0.38 -0.19,0.51 -1.9,3.71 -3.22,4.47 -3.98,4.73 -1.14,0.64 -4.17,-0.38 -5.12,-0.64 -3.04,-0.89 -3.6,-1.28 -5.5,-4.85zm-551.59 -174.06c-3.98,-8.05 -5.68,-16.09 -5.31,-26.05 0.37,-4.6 1.33,-8.81 3.22,-13.15 1.52,-4.08 3.41,-7.53 5.69,-10.21 1.71,-1.41 2.27,-1.41 5.12,-0.52 4.55,1.41 4.93,2.3 5.88,4.09 3.98,7.14 5.5,16.22 4.74,27.45 -0.38,7.4 -1.9,13.66 -4.55,18.9 -0.18,0.13 -0.18,0.25 -0.18,0.51 -1.9,3.32 -3.04,4.08 -3.99,4.47 -0.95,0.51 -4.17,-0.51 -5.12,-0.77 -2.84,-0.9 -3.41,-1.15 -5.5,-4.72zm749.41 -138.56c-19.53,14.43 -31.11,37.67 -33.38,67.17 -1.32,16.6 -2.65,32.95 -3.79,49.42 -10.43,-8.18 -21.81,-14.18 -34.33,-17.88 -15.17,-4.47 -30.35,-4.47 -44.57,-0.13 -2.65,-2.56 -5.12,-4.98 -7.78,-7.29 -18.21,-15.58 -40.59,-27.32 -66.39,-34.86 -16.7,-4.86 -33.2,-6.39 -49.32,-4.6 -13.85,1.4 -27.88,4.98 -41.35,10.72 -0.19,0.13 -0.38,0.13 -0.57,0.13 -26.94,11.75 -49.32,30.52 -66.01,55.93 -10.24,15.71 -18.59,32.57 -24.28,50.19 -5.69,17.75 -9.67,37.8 -11.19,60.02 -0.38,6.26 -0.38,12.64 -0.38,19.03 -12.89,-4.08 -25.79,-8.18 -38.5,-12.13 2.65,-39.85 5.3,-79.7 7.96,-119.53 2.65,-39.72 5.12,-79.56 7.78,-119.53 2.09,-30.52 -4.17,-57.97 -18.2,-81.34 -10.43,-17.88 -30.73,-41.12 -66.01,-51.08 -23.71,-6.77 -46.1,-4.47 -65.26,6.64 -14.79,8.68 -32.81,27.84 -35.28,68.96 -0.19,4.85 -0.57,9.58 -0.76,14.3 -11,-8.43 -22.95,-14.68 -35.66,-18.39 -15.37,-4.6 -30.54,-4.72 -44.39,-0.89 -2.65,-2.43 -5.31,-4.72 -8.15,-7.15 -18.21,-14.94 -40.78,-26.57 -66.58,-34.09 -16.69,-4.86 -33,-6.51 -48.94,-5.11 -13.84,1.28 -27.69,4.47 -40.97,9.83 -0.19,0.13 -0.38,0.13 -0.57,0.13 -26.75,10.73 -48.55,28.48 -64.68,52.61 -10.05,14.81 -18.02,30.78 -23.33,47.63 -5.31,16.86 -8.92,36.02 -10.06,57.34 -0.19,5.87 -0.19,12.01 0,18.01 -12.9,-4.08 -25.8,-8.17 -38.5,-12.13 1.71,-37.92 3.79,-75.98 5.69,-114.04 1.89,-37.93 3.8,-76.11 5.69,-114.16 1.52,-29.11 -5.31,-55.55 -19.35,-77.9 -11,-17.37 -31.49,-39.71 -66.76,-49.8 -23.71,-6.64 -46.09,-4.72 -64.68,5.62 -14.41,8.17 -32.24,26.18 -33.94,65.38 -2.47,53 -4.84,106 -7.21,158.99 -2.37,52.99 -4.74,105.86 -7.01,158.86 -1.14,22.73 6.45,47.12 21.43,70.37 11.19,17.62 31.67,40.87 66.01,52.36 47.42,15.84 95.03,31.67 142.64,47.51 21.25,7.15 41.73,6.13 58.99,-2.94 0.38,-0.25 0.95,-0.25 1.32,-0.51 1.52,-1.15 3.23,-2.04 4.74,-3.19 1.9,2.29 3.6,4.47 5.69,6.77 26.56,30.65 58.61,52.49 94.84,64.62 26.18,8.68 49.88,10.47 70.94,5.23 10.81,10.35 25.79,21.07 46.09,27.84 1.71,0.64 3.6,1.02 5.5,1.4 21.81,4.47 41.16,0.76 56.33,-10.98 11.76,16.98 30.91,36.78 61.07,46.87 47.42,15.84 95.03,31.67 142.83,47.5 21.25,7.15 41.73,5.75 59.18,-3.96 0.38,-0.25 0.76,-0.51 1.32,-0.64 1.52,-1.15 3.41,-2.17 4.93,-3.32 1.71,2.29 3.6,4.59 5.5,6.89 26.37,31.8 57.85,54.02 94.27,66.15 26.17,8.81 50.08,10.22 71.32,4.47 10.62,10.6 25.61,21.71 45.9,28.35 1.7,0.64 3.6,1.15 5.5,1.54 20.49,3.95 38.7,0.51 53.49,-10.09 15.56,23.75 35.66,40.23 58.42,47.76 23.71,7.92 46.29,4.86 65.44,-9.07 10.82,-7.79 18.78,-18.64 24.66,-31.8 2.85,6.39 5.88,12.51 9.1,18.77 0.19,0.38 0.38,0.77 0.38,1.15 10.05,20.18 18.21,33.84 26.18,43.93 10.81,13.67 24.47,24.52 40.4,32.06 1.51,0.76 3.41,1.53 5.31,2.17 22.95,7.66 44.58,6.77 63.73,-2.81 4.74,-2.43 8.92,-5.36 13.09,-8.68 30.73,39.2 69.42,66.79 115.9,82.37 30.92,10.34 60.51,13.53 87.25,9.45 29.78,-4.6 55,-19.16 74.54,-43.42 19.92,-24.39 31.67,-57.47 35.47,-98.21 5.32,-58.23 10.63,-116.46 15.93,-174.83 2.66,-29.37 -3.79,-58.48 -18.4,-84.03 -15.36,-26.95 -37.18,-45.33 -63.16,-52.87 -26.17,-7.66 -50.64,-2.05 -69.23,15.32 -14.22,13.54 -23.71,32.18 -27.69,54.28 -1.14,-0.39 -2.27,-0.65 -3.23,-0.65 0,-24.51 -6.45,-48.53 -18.78,-69.97 -15.18,-26.57 -37.18,-44.82 -62.78,-52.36 -21.81,-6.38 -42.11,-3.96 -59.18,6.77 -14.79,-20.04 -34.14,-34.09 -56.33,-40.6 -23.14,-6.77 -46.66,-2.05 -69.99,13.92 -0.57,0.39 -1.14,1.02 -2.09,1.41 -0.57,0.51 -1.14,1.02 -1.52,1.53 1.9,-25.16 3.98,-50.32 6.07,-75.6 3.04,-40.48 -9.67,-69.6 -20.67,-86.71 -16.31,-24.65 -37.55,-41.25 -62.02,-48.14 -23.71,-6.65 -46.47,-2.68 -65.63,11.75z"/>
      <path class="fil7" d="M2907.95 5025.67c-5.5,8.56 -12.52,14.94 -21.05,19.28 -16.31,8.18 -34.33,8.43 -53.3,2.17 -0.95,-0.38 -2.27,-0.89 -3.41,-1.4 -11.95,-5.62 -23.34,-13.8 -32.63,-25.67 -3.79,-4.86 -7.39,-10.47 -10.81,-16.09 -4.37,-7.53 -8.34,-15.2 -12.14,-22.98 -0.19,-0.38 -0.38,-0.51 -0.57,-0.9 -10.24,-21.32 -20.48,-42.78 -30.54,-64.1 -0.38,3.19 -0.57,6.38 -0.76,9.58 -2.09,24.26 -10.81,45.08 -27.51,57.21 -15.17,11.11 -33.57,13.92 -53.1,7.41 -19.35,-6.39 -36.04,-20.56 -48.56,-40.61 -3.6,-5.75 -6.64,-12 -9.29,-18.26 -1.71,2.3 -3.41,4.6 -5.5,6.64 -13.47,13.8 -31.3,17.88 -50.65,14.18 -1.14,-0.26 -2.46,-0.51 -3.6,-0.89 -16.69,-5.49 -32.62,-15.45 -45.14,-31.67 -22.2,9.2 -46.85,7.54 -72.08,-0.89 -31.49,-10.47 -60.32,-29.88 -84.59,-59.12 -5.88,-7.28 -11.38,-14.94 -16.69,-22.86 -4.18,5.49 -9.29,9.83 -14.98,13.29 -0.19,0.13 -0.38,0.38 -0.76,0.51 -14.61,7.91 -30.72,9.07 -48.37,3.32 -47.61,-15.83 -95.22,-31.67 -142.83,-47.38 -21.06,-6.9 -40.02,-21.2 -53.3,-43.29 -3.03,-5.11 -5.68,-10.22 -7.96,-15.45 -2.46,3.45 -5.12,6.77 -7.96,9.71 -13.09,13.03 -30.92,16.73 -50.26,12.9 -1.14,-0.25 -2.47,-0.64 -3.61,-1.02 -16.69,-5.49 -32.63,-15.2 -45.14,-30.77 -22.01,8.3 -46.66,6.38 -71.89,-2.05 -31.49,-10.47 -60.51,-29.5 -85.17,-57.85 -5.88,-7.02 -11.57,-14.3 -17.07,-21.96 -3.98,5.23 -9.1,9.32 -14.6,12.51 -0.19,0.13 -0.38,0.26 -0.76,0.38 -14.23,7.41 -30.35,8.3 -47.99,2.43 -47.61,-15.71 -95.22,-31.54 -142.83,-47.25 -20.87,-6.9 -40.03,-20.94 -53.68,-42.27 -11.76,-18.27 -18.4,-37.55 -17.45,-56.96 2.28,-53.12 4.74,-106.12 7.21,-159.24 2.46,-53 4.74,-106.12 7.21,-159.12 0.95,-23.12 8.92,-43.54 27.31,-53.64 15.55,-8.94 33.57,-10.08 53.3,-4.47 21.24,6.01 40.59,18.9 53.87,39.84 13.09,20.43 16.69,43.29 15.74,64.87 -2.09,41 -4.08,81.99 -6.07,122.85 -1.99,41 -4.18,81.98 -6.26,122.98 22.57,7.15 45.33,14.43 67.9,21.58 2.46,0.77 4.93,1.53 7.21,2.43 -1.33,-12.65 -1.71,-25.16 -1.33,-37.29 1.14,-18.39 3.99,-36.39 9.3,-53 5.31,-15.96 12.71,-30.78 21.81,-43.93 14.61,-22.09 34.33,-38.44 58.8,-47.89 11.95,-4.6 24.47,-7.92 37.56,-9.07 14.04,-1.28 28.26,0.26 43.06,4.6 20.11,5.87 41.35,15.32 59.18,30.26 5.5,4.47 10.62,9.32 15.37,14.43 1.14,-0.64 2.27,-0.89 3.22,-1.41 12.71,-4.98 26.55,-5.36 41.16,-1.15 19.16,5.75 36.61,18.65 49.69,36.91 0.76,1.15 1.52,2.17 2.09,3.19 1.14,-16.47 2.09,-32.95 3.04,-49.42 1.51,-24.01 9.86,-45.59 28.45,-56.45 15.93,-9.45 34.14,-10.98 53.68,-5.36 21.25,6 40.59,19.29 53.3,40.87 12.9,21.32 16.31,45.33 14.79,67.69 -2.85,43.03 -5.6,85.95 -8.35,128.85 -2.75,42.92 -5.68,85.82 -8.53,128.85 22.57,7.15 45.33,14.3 67.9,21.45 2.47,0.77 4.93,1.53 7.21,2.56 -1.14,-13.15 -1.33,-26.3 -0.57,-38.95 1.33,-19.41 4.55,-38.31 10.24,-55.68 5.5,-16.86 13.28,-32.31 22.57,-46.36 15.17,-23.24 35.47,-40.48 60.13,-50.82 12.14,-5.11 24.84,-8.56 37.94,-9.96 14.04,-1.66 28.45,-0.25 43.25,4.08 20.1,6.01 41.16,15.58 58.79,30.9 5.51,4.6 10.63,9.58 15.37,14.94 0.95,-0.64 2.27,-1.02 3.23,-1.53 12.9,-5.36 26.74,-6 41.16,-1.79 19.34,5.75 36.61,18.9 49.5,37.93 0.19,0.51 0.57,0.89 0.95,1.28 2.09,-28.35 4.18,-56.7 6.45,-85.05 1.9,-23.5 11,-42.78 27.31,-54.91 15.18,-11.36 33.38,-14.94 52.92,-9.45 20.11,5.62 37.36,19.41 50.07,38.95 14.23,21.96 18.78,46.74 16.88,71.26 -3.41,41.25 -6.64,82.37 -10.06,123.49 11.38,-8.81 22.76,-17.88 34.15,-26.82 0.37,-0.38 0.75,-0.64 1.14,-1.02 16.69,-11.62 36.8,-18.27 58.04,-12.01 20.11,5.87 37.56,19.29 50.27,39.97 1.9,2.94 3.79,6 5.12,9.07 1.52,-1.28 2.65,-2.55 4.17,-3.83 15.56,-13.54 35.09,-17.37 55.77,-11.24 20.48,6.13 38.12,20.56 50.64,42.14 12.33,21.33 16.88,44.32 14.99,67.69 -4.55,52.23 -9.11,104.46 -13.66,156.56 -0.38,3.83 -0.38,8.69 0.57,12.51 0.57,1.53 0.95,2.56 1.89,3.7 3.79,5.5 7.97,8.43 13.47,10.22 5.69,1.79 10.25,1.02 14.99,-1.79 3.98,-2.3 4.93,-8.17 5.31,-13.15 4.55,-52.36 9.1,-104.71 13.65,-157.07 1.9,-22.73 10.06,-41.5 24.28,-54.91 15.36,-14.56 34.9,-18.39 55.77,-12.26 20.67,6.13 38.31,20.81 50.83,42.78 12.14,21.2 17.07,45.08 14.98,68.58 -5.31,58.23 -10.43,116.47 -15.93,174.57 -2.84,34.1 -12.71,64.62 -31.3,87.61 -17.64,21.83 -40.21,34.6 -66.39,38.57 -26.17,4.08 -53.68,0.38 -80.61,-8.56 -40.78,-13.67 -78.91,-38.57 -109.06,-78.67 -3.23,-4.34 -6.45,-8.81 -9.49,-13.53zm-60.13 -208.03c10.62,21.07 20.87,42.27 31.3,63.59 2.66,-31.16 5.31,-62.57 7.78,-93.73 -13.09,9.96 -25.99,20.04 -39.08,30.14zm-410.84 -147.5c-3.79,4.34 -6.64,9.58 -8.91,15.32 -2.27,6.13 -3.98,12.51 -4.55,19.54 -0.95,13.41 0.95,26.69 7.59,39.84 4.55,9.19 9.87,14.05 18.59,16.86 5.31,1.66 10.43,2.3 14.98,0.26 5.12,-2.17 8.35,-6.38 11,-11.5 3.79,-8.17 6.07,-17.11 6.64,-27.07 1.14,-13.66 0,-27.96 -6.64,-41.38 -1.71,-3.19 -3.41,-6.13 -6.07,-8.68 -3.98,-3.7 -8.73,-5.87 -13.09,-7.28 -8.34,-2.56 -13.84,-1.54 -19.54,4.08zm-552.72 -171.25c-3.6,4.22 -6.26,9.2 -8.53,14.43 -2.28,5.87 -3.79,12.01 -4.18,18.78 -0.57,12.77 1.52,25.53 8.15,38.18 4.75,8.93 10.25,13.66 18.78,16.35 5.31,1.66 10.43,2.43 14.99,0.38 4.93,-2.05 8.15,-5.87 10.62,-10.73 3.79,-7.92 5.69,-16.34 6.26,-25.79 0.76,-13.03 -0.57,-26.82 -7.4,-39.6 -1.71,-3.19 -3.41,-6 -6.26,-8.42 -3.98,-3.71 -8.72,-5.87 -13.09,-7.15 -8.15,-2.56 -13.65,-1.66 -19.35,3.57z"/>
      <path class="fil8" d="M2912.69 5021.96c2.85,4.47 5.56,8.51 8.92,12.9 6.7,8.76 13.66,16.86 21.06,24.14 -6.45,-6.64 -12.81,-13.84 -18.78,-21.71 -3.14,-4.14 -6.07,-8.56 -8.92,-12.9 -1.71,-2.81 -3.41,-5.36 -5.12,-8.04 -0.19,0.25 -0.38,0.51 -0.38,0.77 0.95,1.53 1.9,3.19 3.22,4.85zm273.52 -280.82c-9.29,-9.45 -20.13,-16.14 -32.05,-19.67 -19.18,-5.67 -36.91,-2.28 -51.03,10.98 -13.19,12.4 -20.35,29.88 -22.19,50.82 -4.61,52.48 -9,104.86 -13.66,157.2 -0.65,7.29 -2.49,14.51 -8.15,17.88 -5.72,3.4 -11.97,4.37 -18.97,2.17 -4.38,-1.38 -7.97,-3.57 -11.38,-6.51 3.98,4.34 8.74,7.24 14.04,8.94 7.02,2.26 13.06,1.36 18.78,-2.17 5.66,-3.49 7.12,-10.61 7.78,-18.01 4.66,-52.36 9.39,-104.71 13.85,-157.07 1.79,-21.06 9.37,-38.23 22.57,-50.7 14.11,-13.33 31.66,-16.79 50.83,-11.11 10.98,3.25 20.86,8.94 29.59,17.24zm-181.9 -54.15c-9.48,-9.32 -20.12,-15.84 -31.87,-19.29 -19.16,-5.61 -36.73,-2.09 -51.02,10.35 -1.26,1.1 -2.58,2.38 -3.79,3.57 -1.63,1.61 -3.23,3.07 -4.74,4.6 0.57,1.02 1.14,2.04 1.71,3.2 1.71,-1.79 3.79,-3.52 5.5,-5.36 1.15,-1.24 2.48,-2.55 3.79,-3.71 14.24,-12.5 31.87,-15.95 50.83,-10.35 10.81,3.2 20.86,8.94 29.59,16.99zm-114.18 -33.59c-9.68,-9.58 -20.69,-16.19 -33.01,-19.8 -19.92,-5.84 -38.2,0.95 -53.68,11.5 -0.48,0.33 -0.89,0.57 -1.14,0.77 -14.17,11.3 -28.26,22.47 -42.49,33.45 -0.19,1.54 -0.19,3.07 -0.38,4.6 14.98,-11.87 30.21,-23.69 45.33,-35.75 0.25,-0.2 0.77,-0.51 1.14,-0.77 15.37,-10.72 33.75,-17.17 53.68,-11.36 11.17,3.25 21.62,9.07 30.54,17.37zm-151.17 -195c-9.49,-9.07 -20.12,-15.43 -31.87,-18.78 -17.83,-5.08 -34.91,-1.67 -48.74,8.68 -15,11.22 -23.18,29.12 -25.04,50.7 -2.87,33.2 -5.31,66.66 -7.77,99.86 0.76,1.15 1.52,2.3 2.46,3.57 2.47,-33.71 5.2,-67.42 7.97,-101.14 1.77,-21.57 9.97,-39.57 24.84,-50.7 13.95,-10.44 30.73,-13.79 48.75,-8.68 10.81,3.06 20.67,8.68 29.4,16.48zm-136.57 110.97c-9.29,-9.32 -20.49,-15.94 -32.63,-19.54 -13.28,-3.94 -26.17,-3.3 -37.75,1.66 -0.94,0.4 -2.09,0.88 -3.03,1.28 -1.14,0.49 -2.27,1.14 -3.22,1.65 0.56,0.77 1.32,1.66 2.27,2.43 1.14,-0.51 2.49,-1.1 3.41,-1.66 0.97,-0.59 2.1,-1 3.04,-1.4 11.76,-4.96 24.47,-5.6 37.94,-1.66 10.99,3.21 21.05,9.2 29.97,17.24zm-88.77 -27.2c-1.71,-1.79 -3.86,-3.63 -5.88,-5.36 -17.13,-14.61 -37.17,-23.8 -56.53,-29.5 -14.02,-4.13 -27.7,-5.53 -41.16,-4.09 -12.71,1.36 -24.89,4.62 -36.61,9.58 -23.56,9.98 -43.31,26.79 -58.04,49.17 -8.97,13.63 -16.56,28.71 -22,45.21 -5.56,16.83 -8.43,35.24 -9.67,53.89 -0.84,12.5 -0.66,25.01 0.57,37.8 0.28,2.92 0.38,5.87 0.95,8.93 -2.65,-1.02 -5.15,-1.97 -7.77,-3.06 -2.3,-0.96 -4.37,-1.65 -6.83,-2.43 -23.9,-7.52 -47.8,-15.2 -71.51,-22.73 0,0.51 0,1.02 0,1.53 24.66,7.92 49.32,15.72 73.98,23.5 2.46,0.78 4.57,1.49 6.83,2.43 2.67,1.11 5.12,2.17 7.78,3.19 -0.57,-3.07 -0.88,-6 -1.14,-9.07 -1.06,-12.76 -1.19,-25.42 -0.38,-37.67 1.27,-18.9 4.12,-37.18 9.68,-54.02 5.44,-16.5 13.05,-31.45 22.19,-45.21 14.76,-22.24 34.38,-38.96 58.04,-49.03 11.43,-4.87 23.9,-8.14 36.61,-9.58 13.27,-1.5 26.95,-0.21 40.78,3.83 19.36,5.66 39.77,15.02 56.71,29.63 1.27,1.1 2.27,2.05 3.41,3.07zm-327.58 -208.54c-10.24,-9.45 -22.01,-15.55 -34.52,-19.16 -18.02,-5.2 -34.89,-3.81 -49.51,4.85 -17.06,10.11 -24.91,30.01 -26.36,52.24 -1.39,21.32 -2.46,42.65 -3.79,63.97 0.76,1.14 1.52,2.43 2.46,3.7 1.14,-21.83 2.67,-43.54 3.98,-65.38 1.33,-22.22 8.91,-42.28 25.8,-52.23 14.98,-8.82 31.88,-10.11 50.07,-4.85 11.39,3.29 22.2,8.68 31.87,16.86zm-138.84 71c-9.49,-8.94 -20.84,-15.54 -32.63,-19.03 -13.63,-4.04 -26.18,-3.58 -37.75,1.02 -0.95,0.37 -2.04,0.86 -3.03,1.28 -1.1,0.47 -2.27,1.02 -3.22,1.53 0.76,0.77 1.33,1.53 2.27,2.29 1.32,-0.51 2.48,-0.98 3.6,-1.53 0.97,-0.47 1.9,-0.9 2.84,-1.28 11.57,-4.6 24.29,-5.15 37.75,-1.14 11.01,3.27 21.05,9.07 30.16,16.86zm-88.77 -27.07c-1.9,-1.79 -3.96,-3.61 -6.07,-5.36 -17.04,-14.2 -37.39,-23.02 -56.71,-28.74 -13.87,-4.11 -27.69,-5.57 -40.97,-4.47 -12.7,1.06 -24.67,4.07 -36.22,8.68 -23.34,9.31 -42.79,24.96 -56.91,46.1 -8.64,12.95 -15.91,27.34 -21.05,42.9 -5.28,15.98 -7.92,33.6 -8.73,51.6 -0.52,11.75 -0.25,23.86 1.14,36.01 0.32,2.8 0.57,5.62 1.14,8.43 -2.66,-0.89 -5.33,-1.89 -7.78,-2.94 -2.29,-0.98 -4.58,-1.71 -6.83,-2.43 -23.92,-7.59 -47.8,-15.2 -71.51,-22.73 0,0.51 0,0.9 0,1.53 24.66,7.79 49.31,15.6 73.98,23.5 2.45,0.79 4.7,1.51 6.82,2.43 2.61,1.12 5.12,2.04 7.78,3.06 -0.57,-2.93 -0.82,-5.74 -1.14,-8.56 -1.39,-12.37 -1.75,-24.39 -1.14,-36.26 0.91,-17.75 3.55,-35.4 8.73,-51.34 5.06,-15.6 12.36,-29.99 21.05,-42.91 14.26,-21.17 33.59,-36.89 56.9,-46.1 11.58,-4.57 23.71,-7.57 36.42,-8.81 13.28,-1.3 26.73,0.33 40.78,4.47 19.32,5.69 39.55,14.81 56.71,28.99 1.23,1.02 2.46,1.92 3.6,2.94zm-329.66 -203.56c-10.24,-9.07 -22.19,-15.34 -34.71,-18.9 -18.02,-5.12 -34.56,-4.01 -49.13,4.08 -16.91,9.4 -24.06,28.48 -25.04,49.68 -2.44,53 -4.74,106.12 -7.21,159.24 -2.46,53.12 -4.94,106.12 -7.21,159.25 -0.76,17.87 5.1,35.52 15.93,52.36 5.09,7.93 11,14.68 17.45,20.43 -5.5,-5.24 -10.54,-11.18 -14.98,-18.14 -10.72,-16.79 -16.74,-34.48 -15.93,-52.36 2.41,-53.12 5.02,-106.25 7.39,-159.37 2.37,-52.99 4.77,-106.12 7.21,-159.25 0.97,-21.2 8,-40.3 24.66,-49.68 14.44,-8.12 31.49,-9.09 49.51,-3.96 11.57,3.3 22.38,8.68 32.05,16.6zm149.47 475.18c0.76,1.41 2,2.73 3.04,4.22 5.03,7.2 10.64,14.42 16.31,21.07 5.32,6.24 11,11.88 16.69,17.11 -4.93,-4.59 -9.7,-9.56 -14.23,-14.81 -5.71,-6.62 -11.31,-13.84 -16.31,-21.07 -1.63,-2.36 -3.6,-4.72 -5.12,-7.15 0,0.25 -0.19,0.51 -0.38,0.64zm175.07 83.77c0.38,0.51 0.79,0.88 1.33,1.54 2.87,3.55 5.88,6.64 9.1,9.58 -2.27,-2.3 -4.7,-4.6 -6.82,-7.28 -0.93,-1.16 -1.9,-2.56 -3.03,-3.96 -0.19,0.13 -0.38,0.13 -0.57,0.13zm106.41 5.24c0.95,2.43 2.28,4.89 3.41,7.54 2.1,4.89 4.55,9.71 7.4,14.43 4.93,8.17 10.62,15.2 17.26,21.08 -5.5,-5.36 -10.41,-11.64 -14.79,-18.78 -2.82,-4.6 -5.23,-9.48 -7.39,-14.43 -1.63,-3.73 -3.41,-7.53 -4.93,-11.23 -0.38,0.38 -0.76,0.89 -0.95,1.4zm267.82 90.67c0.95,1.53 1.97,2.88 3.03,4.47 5.01,7.48 10.37,14.87 15.93,21.71 5.24,6.44 10.81,12.26 16.5,17.62 -4.74,-4.72 -9.49,-9.7 -14.04,-15.2 -5.69,-6.88 -11.09,-14.37 -15.93,-21.83 -1.61,-2.49 -3.61,-4.86 -4.93,-7.41 -0.19,0.26 -0.38,0.51 -0.57,0.65zm174.69 85.05c0.37,0.51 0.85,0.94 1.32,1.53 2.76,3.49 5.69,6.9 8.92,9.96 -2.27,-2.43 -4.62,-4.81 -6.64,-7.53 -1.01,-1.36 -2.09,-2.68 -3.03,-4.09 -0.19,0.13 -0.38,0.13 -0.57,0.13zm104.7 8.05c0.95,2.43 1.83,4.93 2.84,7.4 2.39,5.83 5.06,11.41 8.34,16.73 4.68,7.57 10.06,14.17 16.13,19.92 -4.93,-5.11 -9.41,-11.04 -13.47,-17.5 -3.33,-5.29 -6.29,-11.05 -8.54,-16.73 -1.54,-3.9 -3.03,-7.53 -4.55,-11.36 -0.38,0.51 -0.57,1.02 -0.76,1.53zm134.29 -23.63c12.52,26.31 25.12,52.8 37.94,79.18 0.1,0.21 0.19,0.26 0.37,0.64 0,0 0,0 0,0 0,0 0,0 0,0 3.79,7.66 7.87,15.26 11.96,22.35 3.12,5.42 6.48,10.45 10.24,15.19 2.3,2.91 4.93,5.75 7.4,8.18 -1.71,-1.79 -3.48,-3.66 -5.12,-5.75 -3.67,-4.67 -6.84,-9.83 -10.06,-15.2 -4.37,-7.27 -8.16,-14.81 -11.95,-22.35 0,0 0,0 0,0 0,0 0.07,-0.02 0,-0.13 -0.14,-0.18 -0.24,-0.23 -0.38,-0.51 -13.33,-27.94 -26.74,-55.93 -40.21,-83.77 0,0.76 -0.19,1.41 -0.19,2.17zm152.88 -121.32c-3.41,41.38 -6.82,82.76 -10.24,124 0.57,1.53 1.51,3.07 2.09,4.6 3.79,-43.42 7.4,-87.09 11,-130.64 -0.95,0.77 -1.9,1.41 -2.85,2.04zm-420.51 -107.91c3.04,3.2 5.12,6.52 7.02,10.34 7.39,14.82 8.89,30.66 7.78,45.85 -0.79,10.72 -3.12,20.48 -7.4,29.5 -2.93,6.18 -7.21,11.11 -13.09,13.66 -5.88,2.56 -12.54,2.09 -18.97,0 -4.95,-1.61 -8.91,-3.83 -12.33,-6.89 3.99,4.34 8.73,7.15 14.8,9.07 6.45,2.04 13.11,2.86 18.97,0.26 5.9,-2.63 10.14,-7.63 13.09,-13.8 4.25,-8.9 6.69,-18.77 7.4,-29.5 0.99,-15.19 -0.39,-30.9 -7.78,-45.72 -2.1,-4.21 -4.62,-7.99 -7.78,-11.24 -0.44,-0.45 -0.95,-0.89 -1.71,-1.53zm-552.72 -170.61c2.85,2.93 5.08,6.28 7.02,9.96 7.54,14.32 9.23,29.37 8.35,43.8 -0.64,10.34 -2.67,19.66 -6.83,28.22 -2.85,5.86 -6.98,10.56 -12.71,12.9 -5.84,2.39 -12.16,1.86 -18.78,-0.26 -4.96,-1.58 -8.92,-3.83 -12.52,-6.89 4.17,4.34 8.91,7.05 15.17,9.07 6.44,2.07 12.96,2.81 18.59,0.51 5.93,-2.42 10.01,-7.08 12.9,-13.02 4.12,-8.49 6.28,-17.87 6.83,-28.22 0.78,-14.43 -0.85,-29.55 -8.35,-43.81 -2.17,-4.13 -4.9,-7.82 -7.96,-10.85 -0.54,-0.54 -1.14,-0.9 -1.71,-1.41z"/>
      <path class="fil6" d="M2995.2 4917.62c4.36,-51.97 8.92,-104.07 13.47,-156.18 1.13,-14.94 -1.9,-28.61 -9.3,-41.38 -7.02,-12.64 -17.07,-20.82 -29.4,-24.52 -12.52,-3.71 -23.52,-1.53 -32.44,6.38 -8.92,8.18 -14.22,19.16 -15.36,33.33 -4.93,56.95 -9.67,113.78 -14.42,170.74 -3.6,43.29 6.45,80.33 30.16,111.36 23.52,31.16 54.06,52.87 91.81,65.39 25.03,8.17 47.79,10.6 69.04,7.28 21.06,-3.32 38.51,-13.41 51.97,-30.14 13.65,-16.73 21.81,-39.72 24.28,-69.09 5.31,-57.97 10.43,-116.21 15.75,-174.19 1.32,-14.94 -1.9,-28.99 -9.29,-41.76 -7.21,-13.02 -17.26,-21.33 -29.78,-25.16 -12.52,-3.71 -22.95,-1.54 -31.86,6.77 -8.73,8.17 -13.65,19.54 -14.99,34.1 -4.55,52.48 -9.29,104.97 -13.84,157.33 -1.71,18.13 -7.78,30.52 -18.4,37.03 -10.81,6.51 -22.39,7.66 -34.71,3.7 -12.71,-4.08 -23.52,-12.26 -32.25,-24.77 -8.53,-12.26 -12.14,-27.84 -10.43,-46.23zm-548.17 -122.46c12.52,4.09 23.52,3.96 33,-0.26 9.48,-4.21 16.88,-11.87 22.38,-23.24 5.5,-11.11 8.92,-24.14 9.87,-38.82 1.9,-23.62 -2.09,-44.95 -11.19,-63.59 -9.29,-18.78 -23.52,-31.17 -42.11,-36.78 -17.83,-5.49 -32.63,-1.91 -44.39,10.47 -5.69,6.26 -10.43,13.92 -14.03,23.12 -3.99,9.32 -6.07,19.02 -6.83,29.62 -1.51,21.84 2.47,42.4 12.34,61.94 9.67,19.41 23.14,31.8 40.97,37.54zm-17.26 90.03c-26.36,-8.68 -48.93,-24.39 -67.71,-47.12 -18.78,-22.48 -32.81,-49.04 -42.49,-79.94 -4.55,-15.07 -7.96,-30.14 -10.24,-45.59 -2.09,-15.07 -2.66,-29.88 -1.9,-43.93 1.32,-18.01 4.36,-33.84 8.91,-47.63 4.55,-13.79 10.81,-27.2 19.35,-39.84 12.71,-19.28 29.21,-33.33 49.7,-42.27 10.43,-4.08 20.86,-6.9 31.29,-8.05 10.82,-1.15 21.43,0 32.63,3.32 18.77,5.62 34.33,13.54 46.28,23.88 11.95,10.35 22.19,22.73 30.16,37.42 4.17,-8.56 10.24,-14.3 17.64,-17.5 7.96,-3.2 16.12,-3.45 24.47,-1.02 11.95,3.57 21.62,11.23 29.4,22.73 7.97,11.62 11.19,25.54 10.06,41.5 -3.04,39.85 -6.17,79.55 -9.1,119.28 -2.94,39.71 -5.88,79.43 -8.92,119.15 -0.95,12.26 -5.12,22.22 -12.71,29.88 -7.21,7.66 -17.26,10.34 -29.59,7.92 -12.33,-3.96 -21.62,-10.6 -28.45,-19.66 -6.45,-9.2 -11,-17.5 -13.09,-25.16 -19.35,18.65 -44.38,22.99 -75.68,12.65zm-533.18 -266.52c12.52,3.96 23.33,4.08 32.81,0.13 9.1,-3.83 16.5,-11.11 21.62,-21.84 5.31,-10.6 8.53,-22.98 9.29,-37.16 1.32,-22.48 -3.04,-42.91 -12.33,-60.91 -9.48,-18.14 -23.9,-30.14 -42.49,-35.76 -17.83,-5.49 -32.43,-2.29 -44,9.45 -5.5,5.87 -10.06,13.15 -13.47,21.96 -3.79,8.81 -5.69,18.13 -6.45,28.09 -0.95,20.94 3.41,40.61 13.47,59.51 9.86,18.65 23.7,30.78 41.54,36.53zm-15.56 85.82c-26.74,-8.81 -49.32,-24.14 -68.28,-45.97 -19.16,-21.84 -33.57,-47.51 -43.63,-77 -4.74,-14.56 -8.53,-29.12 -11,-43.81 -2.46,-14.55 -3.23,-28.6 -2.65,-42.01 0.95,-17.24 3.6,-32.31 7.97,-45.46 4.17,-13.15 10.24,-25.8 18.39,-37.81 12.33,-18.38 28.64,-31.54 48.94,-39.71 10.24,-3.83 20.49,-6.38 30.91,-7.28 10.63,-1.02 21.25,0.13 32.44,3.58 18.97,5.62 34.52,13.41 46.66,23.5 12.14,9.96 22.38,21.96 30.53,36.01 3.98,-8.05 9.86,-13.41 17.26,-16.35 7.78,-3.07 15.93,-3.19 24.47,-0.64 11.76,3.45 21.62,10.86 29.59,22.09 7.96,11.11 11.57,24.52 10.62,39.84 -2.27,37.93 -4.64,75.98 -7.01,114.04 -2.37,37.92 -4.55,75.86 -6.83,113.79 -0.76,11.75 -4.74,21.32 -12.14,28.47 -7.21,7.29 -17.07,9.58 -29.21,7.29 -12.33,-4.09 -21.81,-10.6 -28.64,-19.42 -6.82,-8.81 -11.38,-16.86 -13.47,-24.26 -18.97,17.75 -43.82,21.45 -74.93,11.11zm-126.51 -75.73c2.28,-4.22 3.79,-9.45 4.17,-15.84 0.76,-14.17 -2.27,-26.69 -9.29,-37.54 -7.21,-10.72 -17.64,-18.51 -31.29,-22.86 -32.63,-10.47 -65.25,-20.81 -97.88,-31.29 2.46,-45.97 4.46,-92.08 6.82,-138.17 2.37,-46.1 4.55,-92.07 7.02,-138.17 0.57,-16.99 -2.47,-31.03 -9.68,-42.14 -7.02,-11.11 -17.64,-18.65 -31.49,-22.6 -12.71,-3.71 -23.9,-2.81 -33.38,2.55 -9.48,5.36 -14.8,16.35 -15.56,33.2 -2.46,53.12 -4.94,106.38 -7.4,159.5 -2.47,53.25 -4.93,106.5 -7.4,159.63 -0.57,10.6 3.04,21.96 10.62,33.71 7.78,12.01 18.4,20.18 32.24,24.77 47.61,15.59 95.22,31.29 143.02,46.87 10.43,3.44 20.1,2.93 28.64,-1.53 4.74,-2.68 8.34,-6 10.81,-10.09zm345.4 -250.17c-3.41,55.81 -7.02,111.61 -10.43,167.29 -3.41,55.81 -7.01,111.62 -10.43,167.29 -0.76,11.11 2.65,22.99 10.24,35.24 7.4,12.39 18.21,20.81 31.87,25.29 47.61,15.71 95.21,31.29 143.02,47 10.43,3.44 20.11,2.68 28.83,-2.05 4.74,-2.93 8.53,-6.51 11,-10.86 2.65,-4.21 4.17,-9.83 4.55,-16.47 0.95,-14.94 -1.71,-27.84 -8.73,-39.2 -6.83,-11.24 -17.26,-19.03 -31.11,-23.5 -32.44,-10.35 -65.06,-20.82 -97.68,-31.29 3.22,-48.14 6.07,-96.43 9.29,-144.68 3.22,-48.28 6.45,-96.54 9.68,-144.94 0.95,-17.75 -1.9,-32.31 -8.92,-43.93 -6.82,-11.49 -17.26,-19.29 -31.3,-23.24 -12.7,-3.71 -23.9,-2.56 -33.57,3.19 -9.67,5.74 -15.17,17.37 -16.31,34.86zm605.07 88.37c11.95,3.44 21.43,11.1 29.21,23.24 7.96,12.13 11.19,26.82 10.05,44.18 -2.84,34.48 -5.6,69.08 -8.34,103.44 -2.76,34.47 -5.5,68.96 -8.16,103.57 29.97,-23.62 59.94,-47.38 90.1,-71.13 13.47,-9.32 25.8,-12.26 36.99,-8.94 12.71,3.7 22.57,11.5 29.78,23.37 7.4,12.01 10.62,23.75 9.67,35.38 -2.27,13.41 -8.72,23.5 -18.97,30.52 -22.38,17.37 -44.76,34.61 -66.95,51.72 23.52,47.89 47.04,95.9 70.75,144.3 7.21,12.64 10.24,24.9 9.29,37.29 -0.95,13.02 -6.64,22.09 -17.07,27.2 -10.24,5.24 -21.81,5.75 -34.9,1.4 -7.96,-3.7 -14.23,-8.42 -18.78,-14.3 -4.74,-6 -10.82,-16.35 -18.21,-31.29 -25.42,-53.25 -51.03,-106.25 -76.63,-159.12 -0.57,-0.13 -0.95,-0.26 -1.32,-0.38 -2.84,36.14 -5.69,72.28 -8.54,108.42 -1.52,16.72 -6.82,28.48 -16.5,35.63 -9.49,6.9 -20.11,8.43 -31.87,4.6 -11.19,-3.7 -20.67,-11.62 -28.26,-23.75 -7.59,-12.26 -10.63,-26.44 -9.49,-43.16 5.12,-63.73 10.34,-127.59 15.37,-191.43 5.03,-63.85 10.24,-127.7 15.17,-191.68 1.33,-15.07 6.45,-26.18 16.12,-33.2 9.48,-7.15 20.11,-9.07 31.49,-5.87z"/>
     </g>
     <g>
      <path class="fil9" d="M1545.12 4152.56c10.62,0.77 21.05,1.53 31.68,2.3 10.05,5.11 20.48,10.34 30.72,15.71 -10.43,-0.76 -21.05,-1.53 -31.3,-2.17 -10.43,-5.24 -20.68,-10.47 -31.11,-15.84z"/>
      <path class="fil9" d="M1574.9 4193.81c-1.89,-11.49 -3.79,-22.86 -5.5,-34.23 2.65,-10.08 5.69,-20.05 8.73,-30.26 1.51,11.49 3.6,22.86 5.31,34.35 -2.84,9.96 -5.88,20.05 -8.53,30.14z"/>
     </g>
     <g>
      <path class="fil9" d="M2102.96 4312.57c10.05,0.64 19.92,1.28 29.97,1.79 9.68,5.11 19.54,10.09 29.4,15.2 -10.25,-0.51 -20.3,-1.14 -30.16,-1.79 -9.86,-4.98 -19.53,-10.09 -29.21,-15.2z"/>
      <path class="fil9" d="M2130.46 4353.18c-1.52,-11.36 -3.04,-22.73 -4.74,-33.97 3.03,-10.08 5.88,-20.18 8.72,-30.26 1.71,11.36 3.23,22.73 4.74,34.09 -2.85,9.96 -5.69,20.05 -8.73,30.14z"/>
     </g>
     <g>
      <path class="fil9" d="M2652.64 4445.13c7.78,0.38 15.56,0.77 23.33,1.02 7.59,4.09 14.99,8.04 22.57,12.01 -7.78,-0.38 -15.56,-0.77 -23.52,-1.15 -7.4,-3.96 -14.79,-7.92 -22.39,-11.88z"/>
      <path class="fil9" d="M2673.7 4477.44c-1.33,-9.19 -2.27,-18.26 -3.41,-27.33 2.27,-8.17 4.74,-16.22 7.21,-24.39 1.14,9.19 2.09,18.26 3.23,27.33 -2.27,8.17 -4.74,16.22 -7.02,24.39z"/>
     </g>
    </g>
   </g>
  </g>
 </g>
</svg>
