<?xml version="1.0" encoding="utf-8"?>
<!-- Generator: Adobe Illustrator 24.0.0, SVG Export Plug-In . SVG Version: 6.00 Build 0)  -->
<svg version="1.1" id="Layer_1" xmlns="http://www.w3.org/2000/svg" xmlns:xlink="http://www.w3.org/1999/xlink" x="0px" y="0px"
	 viewBox="0 0 2500 2500" style="enable-background:new 0 0 2500 2500;" xml:space="preserve">
<style type="text/css">
	.st0{fill:#EEFF00;}
	.st1{fill-rule:evenodd;clip-rule:evenodd;fill:#FFFFFF;}
	.st2{fill-rule:evenodd;clip-rule:evenodd;fill:#194399;}
	.st3{fill-rule:evenodd;clip-rule:evenodd;fill:#6577BA;}
	.st4{fill:#194399;}
	.st5{fill:none;stroke:url(#SVGID_1_);stroke-width:0.8504;stroke-miterlimit:10;}
	.st6{fill:none;stroke:url(#SVGID_2_);stroke-width:0.8504;stroke-miterlimit:10;stroke-dasharray:4.2184,4.2184;}
	.st7{fill:none;stroke:url(#SVGID_3_);stroke-width:0.8504;stroke-miterlimit:10;}
	.st8{fill-rule:evenodd;clip-rule:evenodd;fill:none;stroke:url(#SVGID_4_);stroke-width:0.2835;stroke-miterlimit:10;}
	.st9{fill-rule:evenodd;clip-rule:evenodd;fill:none;stroke:url(#SVGID_5_);stroke-width:0.2835;stroke-miterlimit:10;}
	.st10{fill:none;}
</style>
<path class="st0" d="M1782.95,1131.06c-0.2,0-0.39-0.02-0.6-0.02c-0.21-0.02-0.42-0.02-0.64-0.02H760.72c-0.01,0.03-0.97,0-1.45,0
	c-9.32,0-17.13,7.15-19.3,16.78c-0.01,0-0.02-0.01-0.03-0.01l-43.88,191.63c-0.57,2.39-1.27,5.01-1.27,7.73
	c0,12.25,8.89,22.09,19.89,22.09c0.69,0,1.39-0.01,2.07-0.02h907.06h115.69c11.53,0,21.45-9.84,22-22.65c0.59-13.68-9.21-25-21.4-25
	h-94.87c-12.16,0-21.97-11.28-21.4-24.96c0.53-12.82,10.46-22.69,22-22.69h115.69c12.18,0,21.98-11.29,21.4-24.97
	c-0.55-12.81-10.47-22.66-22-22.66h-94.26c-12.19,0-21.99-11.32-21.4-25c0.55-12.8,10.48-22.65,22-22.65h115.69
	c11.64,0,21.1-10.3,21.41-23.15C1804.03,1142.41,1794.67,1131.78,1782.95,1131.06z"/>
<g>
	<path class="st1" d="M997.05,1265.05c-0.94-1.24-1.36-2.64-1.36-4.53c0-0.85,0.14-1.69,0.44-2.58c0.29-0.86,0.64-1.59,1.07-2.23
		c0.29-0.36,0.4-0.39,0.94-0.39c0.94,0,1.05,0.15,1.25,0.41c0.84,1.11,1.24,2.67,1.24,4.78c0,1.41-0.22,2.64-0.68,3.76
		c-0.01,0.03-0.02,0.06-0.03,0.09c-0.3,0.76-0.59,0.96-0.73,1.06c-0.24,0.17-0.86,0.18-1.05,0.18
		C997.57,1265.61,997.46,1265.59,997.05,1265.05 M885.89,1265.05c-0.94-1.24-1.36-2.64-1.36-4.53c0-0.85,0.14-1.69,0.44-2.58
		c0.29-0.86,0.64-1.59,1.07-2.23c0.29-0.36,0.4-0.39,0.94-0.39c0.94,0,1.05,0.15,1.25,0.41c0.84,1.11,1.24,2.67,1.24,4.78
		c0,1.41-0.22,2.64-0.68,3.76c-0.01,0.03-0.02,0.06-0.03,0.09c-0.3,0.76-0.59,0.96-0.73,1.06c-0.24,0.17-0.86,0.18-1.04,0.18
		C886.4,1265.61,886.3,1265.59,885.89,1265.05 M1031.27,1200.17c-3.61,3.47-5.51,8.09-5.51,13.33l-0.03,8.78
		c-2.18-0.89-4.53-1.35-6.98-1.35c-3.05,0-6.03,0.77-8.71,2.24c-0.55-0.31-1.11-0.6-1.68-0.87c-3.77-1.79-8.31-2.69-13.5-2.69
		c-3.32,0-6.57,0.57-9.69,1.72c-2.69,0.99-5.37,2.37-7.96,4.07c-0.03,0.02-0.06,0.04-0.09,0.06c-5.17,3.5-9.28,8.03-12.22,13.44
		c-1.84,3.36-3.23,6.83-4.14,10.29c-0.9,3.47-1.36,7.28-1.36,11.33c0,1.14,0.05,2.28,0.14,3.41h-7.79v-43.71
		c0-5.6-1.54-10.2-4.57-13.68c-2.31-2.66-6.55-5.82-13.57-5.82c-4.74,0-9.12,1.57-12.7,4.58c-2.78,2.36-6.1,6.78-6.1,14.43v2.65
		c-2.25-0.96-4.68-1.46-7.23-1.46c-3.05,0-6.03,0.77-8.71,2.24c-0.55-0.31-1.11-0.6-1.68-0.87c-3.77-1.78-8.31-2.69-13.5-2.69
		c-3.32,0-6.57,0.57-9.69,1.72c-2.69,0.99-5.37,2.36-7.96,4.07c-0.03,0.02-0.06,0.04-0.1,0.06c-5.17,3.5-9.28,8.03-12.21,13.44
		c-1.84,3.36-3.23,6.83-4.14,10.3c-0.9,3.47-1.36,7.28-1.36,11.33c0,1.14,0.05,2.28,0.14,3.41h-7.79v-43.71
		c0-5.6-1.54-10.2-4.57-13.68c-2.31-2.66-6.55-5.82-13.57-5.82c-4.74,0-9.12,1.57-12.7,4.58c-2.78,2.36-6.1,6.78-6.1,14.43v61.88
		c0,4.41,1.69,8.61,4.9,12.14c2.4,2.64,6.72,5.79,13.68,5.79h28.92c4.32,0,8.37-1.46,11.72-4.21c0.08-0.06,0.16-0.13,0.23-0.2
		c0.32-0.28,0.64-0.58,0.94-0.88c0.39,0.31,0.79,0.6,1.19,0.9c5.66,4.09,12.25,6.17,19.61,6.17c5.29,0,10.07-1.16,14.19-3.41
		c2.25,1.25,5.36,2.29,9.46,2.29c0.38,0,0.76-0.02,1.13-0.07c4.41-0.53,8.19-2.39,11.04-5.42c2.52,2.39,6.61,4.82,12.73,4.82h28.93
		c4.32,0,8.37-1.46,11.72-4.21c0.08-0.06,0.16-0.13,0.23-0.2c0.32-0.28,0.64-0.58,0.94-0.88c0.39,0.31,0.78,0.6,1.19,0.89
		c5.66,4.09,12.25,6.17,19.61,6.17c5.29,0,10.07-1.16,14.19-3.41c2.25,1.25,5.36,2.29,9.46,2.29c0.38,0,0.76-0.02,1.13-0.07
		c4.11-0.5,7.67-2.14,10.44-4.82c3.4,3.2,7.63,4.88,12.26,4.88c4.8,0,9.22-1.82,12.81-5.3c1.97-1.92,3.43-4.22,4.35-6.79l2.06,2.69
		c0.04,0.05,0.08,0.1,0.12,0.16c2.31,2.88,4.12,4.74,5.88,6.03c2.33,1.71,5.18,2.77,8.45,3.15c0.36,0.04,0.72,0.06,1.08,0.06
		c4.7,0,8.91-1.36,12.55-4.06c0.89-0.67,1.69-1.39,2.41-2.17c6.69,4.87,14.86,7.34,24.27,7.34c6.29,0,12.13-1.1,17.33-3.27
		c5.79-2.38,10.47-6.15,13.91-11.2c3.45-5.07,5.2-11.12,5.2-18v-29.55c0-4.96-1.76-9.44-5.06-12.92c-3.47-3.7-8.04-5.66-13.21-5.66
		c-5.22,0-9.93,2.12-13.25,5.95c-2.56,2.95-4.09,6.52-4.51,10.4c-0.22,0.01-0.43,0.03-0.64,0.07c-0.43-4.08-2.08-7.77-4.85-10.76
		c-3.43-3.71-7.98-5.66-13.13-5.66c-4.32,0-8.22,1.39-11.42,4.07c-3.21-2.67-7.19-4.07-11.61-4.07c-4.67,0-9.21,1.98-13.49,5.88
		c-0.13,0.12-0.25,0.23-0.37,0.36l-0.33,0.34v-13.23c0-7.07-2.95-11.44-5.38-13.82c-3.5-3.46-7.91-5.29-12.76-5.29
		C1039.14,1194.95,1034.78,1196.75,1031.27,1200.17"/>
	<path class="st2" d="M1092.57,1289c-0.93,1.74-2.26,3.21-3.85,4.39c-3.08,2.3-6.65,3.37-10.48,3.37c-0.23,0-0.46-0.01-0.69-0.04
		c-2.46-0.28-4.83-1.06-6.84-2.53c-0.86-0.63-1.65-1.37-2.39-2.14c-0.99-1.03-1.91-2.12-2.8-3.23c-0.03-0.04-0.06-0.07-0.09-0.11
		l-7.09-9.25v1.68c0,4.27-1.39,8.29-4.48,11.3c-2.84,2.76-6.42,4.31-10.4,4.31c-3.9,0-7.43-1.5-10.2-4.24
		c-0.81-0.8-1.51-1.68-2.1-2.65c-0.31,0.51-0.66,1.01-1.02,1.48c-2.43,3.13-5.89,4.89-9.79,5.36c-0.24,0.03-0.48,0.04-0.72,0.04
		c-3.39,0-6.67-0.82-9.38-2.9c-4.25,2.86-9.17,4.01-14.27,4.01c-6.4,0-12.38-1.75-17.58-5.51c-1.28-0.93-2.5-1.94-3.64-3.04
		c-0.77,1.2-1.71,2.28-2.79,3.23c-0.05,0.04-0.1,0.08-0.15,0.13c-2.75,2.26-5.97,3.43-9.53,3.43H933.4c-4.27,0-8.23-1.46-11.13-4.66
		c-0.66-0.73-1.27-1.51-1.79-2.34c-0.43,0.79-0.92,1.55-1.47,2.27c-2.43,3.13-5.89,4.89-9.79,5.36c-0.24,0.03-0.48,0.04-0.72,0.04
		c-3.39,0-6.67-0.82-9.38-2.9c-4.25,2.86-9.17,4.01-14.27,4.01c-6.4,0-12.38-1.75-17.58-5.51c-1.28-0.93-2.5-1.94-3.64-3.04
		c-0.77,1.2-1.72,2.28-2.79,3.23c-0.05,0.04-0.1,0.08-0.15,0.12c-2.75,2.26-5.97,3.43-9.53,3.43h-28.92
		c-4.27,0-8.23-1.46-11.13-4.66c-2.51-2.76-4.01-6.05-4.01-9.82v-61.88c0-4.48,1.38-8.84,4.89-11.8c3-2.53,6.55-3.76,10.47-3.76
		c4.21,0,8.15,1.41,10.96,4.64c2.77,3.18,3.72,7.29,3.72,11.42v47.16h13.74c0.48,0,0.97,0.02,1.45,0.05
		c-0.42-2.28-0.64-4.6-0.64-6.92c0-3.51,0.36-7.06,1.25-10.46c0.86-3.31,2.19-6.5,3.82-9.5c2.69-4.95,6.45-9.1,11.13-12.24
		c2.28-1.53,4.73-2.81,7.31-3.75c2.72-1,5.59-1.5,8.49-1.5c4.08,0,8.31,0.6,12.02,2.36c1.11,0.52,2.17,1.13,3.19,1.81
		c0.2-0.14,0.4-0.28,0.6-0.42c2.43-1.6,5.15-2.44,8.07-2.44c3.86,0,7.4,1.41,10.22,4.05c0.16,0.15,0.31,0.29,0.46,0.45v-9.14
		c0-4.48,1.38-8.84,4.89-11.8c3-2.53,6.55-3.76,10.47-3.76c4.21,0,8.16,1.41,10.97,4.64c2.76,3.17,3.72,7.29,3.72,11.42v47.16h13.74
		c0.48,0,0.97,0.02,1.45,0.05c-0.42-2.28-0.64-4.6-0.64-6.92c0-3.51,0.36-7.06,1.25-10.46c0.86-3.31,2.19-6.5,3.82-9.5
		c2.7-4.95,6.45-9.1,11.13-12.24c2.28-1.53,4.73-2.81,7.31-3.75c2.72-1,5.59-1.5,8.49-1.5c4.08,0,8.32,0.6,12.02,2.36
		c1.11,0.52,2.17,1.13,3.19,1.81c0.2-0.14,0.4-0.28,0.6-0.42c2.43-1.6,5.16-2.44,8.07-2.44c3.86,0,7.4,1.41,10.22,4.05
		c0.06,0.06,0.13,0.12,0.19,0.18l0.05-15.09c0.01-4.16,1.48-7.97,4.48-10.88c2.79-2.7,6.31-4.23,10.2-4.23
		c3.95,0,7.52,1.53,10.33,4.29c3.11,3.06,4.36,7.08,4.36,11.37v21.65l6.24-6.34c0.08-0.08,0.15-0.15,0.24-0.23
		c3.1-2.82,6.87-4.98,11.17-4.98c3.98,0,7.65,1.4,10.47,4.25c0.41,0.41,0.79,0.84,1.15,1.29c0.24-0.3,0.48-0.59,0.74-0.87
		c2.81-3.07,6.52-4.67,10.68-4.67c4.1,0,7.8,1.54,10.6,4.56c2.74,2.96,4.05,6.56,4.05,10.57v26.85c0,0.66,0.06,1.48,0.35,2.08
		c0.1,0.21,0.21,0.35,0.38,0.51c0.84,0.71,1.74,0.99,2.84,0.99c1.14,0,2.04-0.37,2.91-1.09c0.72-0.59,0.81-1.61,0.81-2.48v-26.85
		c0-3.9,1.25-7.41,3.8-10.37c2.74-3.17,6.47-4.76,10.64-4.76c4.13,0,7.85,1.55,10.69,4.57c2.73,2.9,4.13,6.59,4.13,10.56v29.55
		c0,5.73-1.35,11.28-4.6,16.05c-3.09,4.54-7.3,7.86-12.37,9.96c-5.07,2.1-10.54,3.01-16.02,3.01c-8.27,0-16.19-2.06-22.83-7.12
		C1093.93,1290.2,1093.24,1289.62,1092.57,1289 M1077.38,1257.08l7.16,9.12v-16.27L1077.38,1257.08z M994.41,1253.68
		c-0.68,0.97-1.19,2.06-1.56,3.18c-0.4,1.19-0.62,2.41-0.62,3.67c0,2.43,0.57,4.65,2.06,6.61c1.04,1.37,2.13,1.93,3.85,1.93
		c1.07,0,2.14-0.18,3.03-0.81c0.93-0.65,1.53-1.56,1.95-2.61c0.67-1.65,0.96-3.34,0.96-5.12c0-2.43-0.44-4.87-1.94-6.86
		c-0.37-0.49-0.78-0.9-1.32-1.2c-0.81-0.45-1.77-0.58-2.68-0.58C996.5,1251.88,995.43,1252.38,994.41,1253.68 M883.25,1253.68
		c-0.68,0.97-1.19,2.06-1.56,3.18c-0.4,1.19-0.62,2.41-0.62,3.67c0,2.43,0.57,4.65,2.06,6.61c1.04,1.37,2.13,1.93,3.85,1.93
		c1.07,0,2.14-0.18,3.04-0.81c0.93-0.65,1.53-1.56,1.95-2.6c0.67-1.65,0.96-3.34,0.96-5.12c0-2.43-0.44-4.87-1.94-6.86
		c-0.37-0.49-0.78-0.9-1.32-1.2c-0.81-0.45-1.77-0.58-2.68-0.58C885.33,1251.88,884.26,1252.38,883.25,1253.68"/>
	<path class="st3" d="M1093.4,1288.12c0.63,0.59,1.3,1.15,1.99,1.67c1.46,1.11,2.98,2.07,4.55,2.89c-1.39-0.76-2.74-1.63-4.03-2.61
		c-0.69-0.53-1.35-1.08-1.99-1.68l-1.15-1.07l-0.07,0.14L1093.4,1288.12z M1142.27,1227.06c-1.98-1.11-4.22-1.68-6.62-1.68
		c-3.82,0-7.22,1.44-9.73,4.35c-2.37,2.73-3.51,5.97-3.51,9.58v26.85c0,1.27-0.21,2.56-1.25,3.41c-1.09,0.9-2.26,1.36-3.68,1.36
		c-0.87,0-1.66-0.15-2.39-0.48c0.87,0.53,1.83,0.76,2.91,0.76c1.42,0,2.59-0.47,3.68-1.36c1.04-0.86,1.25-2.14,1.25-3.41v-26.85
		c0-3.61,1.14-6.85,3.51-9.58c2.51-2.9,5.91-4.35,9.73-4.35C1138.36,1225.65,1140.42,1226.13,1142.27,1227.06 M1105.82,1227.04
		c-1.96-1.1-4.18-1.66-6.55-1.66c-3.82,0-7.2,1.46-9.79,4.28c-0.24,0.26-0.47,0.53-0.69,0.81l-0.79,1l0.37,0.46l0.94-1.19
		c0.22-0.28,0.45-0.55,0.69-0.81c2.58-2.82,5.97-4.28,9.79-4.28C1101.95,1225.65,1103.99,1226.12,1105.82,1227.04 M1082.97,1227.08
		c-2.02-1.14-4.32-1.7-6.74-1.7c-3.98,0-7.49,2.05-10.35,4.66c-0.06,0.06-0.13,0.12-0.19,0.18l-7.79,7.91v0.8l8.31-8.44
		c0.06-0.06,0.12-0.12,0.19-0.18c2.86-2.61,6.38-4.66,10.35-4.66C1078.97,1225.65,1081.08,1226.12,1082.97,1227.08 M1050.37,1201.28
		c-1.95-1.09-4.14-1.68-6.48-1.68c-3.58,0-6.81,1.41-9.37,3.89c-2.77,2.68-4.1,6.19-4.11,10.02l-0.06,17.7l0.52,0.5l0.06-17.93
		c0.01-3.83,1.34-7.33,4.11-10.02c2.56-2.48,5.79-3.89,9.37-3.89C1046.55,1199.88,1048.56,1200.37,1050.37,1201.28 M1025.42,1227.3
		c-2.01-1.13-4.27-1.72-6.67-1.72c-2.68,0-5.17,0.77-7.41,2.24c-0.19,0.12-0.37,0.25-0.55,0.38l-0.63,0.46l0.47,0.31l0.68-0.5
		c0.18-0.13,0.37-0.26,0.55-0.38c2.23-1.47,4.73-2.24,7.41-2.24C1021.46,1225.86,1023.54,1226.35,1025.42,1227.3 M1007.61,1227.15
		c-0.41-0.22-0.82-0.44-1.25-0.64c-3.54-1.68-7.61-2.24-11.51-2.24c-2.76,0-5.49,0.48-8.08,1.43c-2.49,0.91-4.85,2.15-7.05,3.62
		c-4.51,3.03-8.14,7.05-10.74,11.82c-1.59,2.92-2.88,6.01-3.71,9.23c-0.86,3.31-1.21,6.74-1.21,10.16c0,2.25,0.21,4.49,0.62,6.7
		l0.28,1.54l-1.56-0.12c-0.45-0.03-0.91-0.05-1.36-0.05h-14.43v0.28h14.94c0.45,0,0.91,0.02,1.36,0.05l1.56,0.12l-0.28-1.54
		c-0.41-2.21-0.62-4.45-0.62-6.7c0-3.41,0.35-6.85,1.21-10.16c0.84-3.22,2.12-6.31,3.71-9.23c2.6-4.77,6.23-8.79,10.74-11.82
		c2.2-1.48,4.56-2.71,7.05-3.62c2.59-0.95,5.32-1.43,8.08-1.43c3.89,0,7.96,0.56,11.51,2.24
		C1007.13,1226.9,1007.37,1227.02,1007.61,1227.15 M940.58,1207.08c-2.08-1.17-4.47-1.7-6.96-1.7c-3.63,0-6.91,1.13-9.69,3.48
		c-3.23,2.72-4.46,6.76-4.46,10.87v11.85l0.52,0.53v-12.1c0-4.11,1.23-8.15,4.46-10.87c2.78-2.35,6.06-3.48,9.69-3.48
		C936.43,1205.66,938.63,1206.1,940.58,1207.08 M914.26,1227.3c-2.01-1.13-4.27-1.72-6.67-1.72c-2.68,0-5.17,0.77-7.41,2.24
		c-0.19,0.12-0.37,0.25-0.56,0.39l-0.63,0.46l0.47,0.31l0.68-0.5c0.18-0.13,0.37-0.26,0.56-0.38c2.23-1.47,4.73-2.24,7.41-2.24
		C910.3,1225.86,912.38,1226.35,914.26,1227.3 M896.45,1227.15c-0.41-0.22-0.83-0.44-1.25-0.64c-3.54-1.68-7.61-2.24-11.51-2.24
		c-2.76,0-5.49,0.48-8.08,1.43c-2.49,0.91-4.85,2.15-7.05,3.62c-4.51,3.03-8.14,7.05-10.74,11.82c-1.59,2.92-2.88,6.01-3.71,9.23
		c-0.86,3.31-1.21,6.74-1.21,10.16c0,2.25,0.21,4.49,0.62,6.7l0.28,1.54l-1.56-0.12c-0.45-0.03-0.91-0.05-1.36-0.05h-14.42v0.28
		h14.94c0.45,0,0.91,0.02,1.36,0.05l1.56,0.12l-0.28-1.54c-0.41-2.21-0.62-4.45-0.62-6.7c0-3.41,0.35-6.85,1.21-10.16
		c0.84-3.22,2.13-6.31,3.71-9.23c2.6-4.77,6.23-8.79,10.74-11.82c2.2-1.48,4.56-2.71,7.05-3.62c2.59-0.95,5.32-1.43,8.08-1.43
		c3.89,0,7.96,0.56,11.51,2.24C895.97,1226.9,896.21,1227.02,896.45,1227.15 M829.42,1207.08c-2.07-1.17-4.46-1.7-6.96-1.7
		c-3.63,0-6.9,1.13-9.69,3.48c-3.23,2.72-4.46,6.76-4.46,10.87v61.88c0,3.47,1.39,6.47,3.69,9.01c1.08,1.19,2.32,2.12,3.67,2.8
		c-1.15-0.65-2.21-1.48-3.15-2.52c-2.3-2.54-3.69-5.55-3.69-9.01v-61.88c0-4.11,1.23-8.15,4.46-10.87c2.78-2.35,6.06-3.48,9.69-3.48
		C825.27,1205.66,827.47,1206.1,829.42,1207.08 M863.83,1287.84l0.63,0.61c1.1,1.06,2.27,2.04,3.51,2.93
		c1.12,0.81,2.28,1.52,3.47,2.14c-1.01-0.55-1.99-1.17-2.95-1.86c-1.24-0.89-2.41-1.88-3.51-2.93l-1.06-1.02L863.83,1287.84z
		 M899.6,1292.71l0.25,0.2c0.61,0.47,1.25,0.87,1.91,1.2c-0.48-0.27-0.95-0.58-1.39-0.92l-0.69-0.53L899.6,1292.71z M920.75,1287.27
		l0.75,1.18c0.49,0.77,1.05,1.5,1.67,2.18c1.08,1.19,2.32,2.12,3.67,2.8c-1.15-0.65-2.21-1.48-3.16-2.52
		c-0.62-0.68-1.18-1.41-1.67-2.18l-1.11-1.74L920.75,1287.27z M974.99,1287.84l0.63,0.61c1.1,1.06,2.27,2.04,3.51,2.93
		c1.12,0.81,2.28,1.52,3.47,2.14c-1.01-0.55-1.99-1.17-2.95-1.86c-1.24-0.89-2.41-1.88-3.51-2.93l-1.06-1.02L974.99,1287.84z
		 M1010.76,1292.71l0.25,0.2c0.61,0.47,1.25,0.87,1.91,1.2c-0.48-0.27-0.95-0.58-1.4-0.92l-0.69-0.53L1010.76,1292.71z
		 M1031.54,1288.12l0.69,1.12c0.54,0.88,1.18,1.69,1.92,2.42c1.05,1.04,2.21,1.88,3.47,2.51c-1.06-0.6-2.05-1.34-2.95-2.24
		c-0.73-0.73-1.38-1.54-1.92-2.42l-1.03-1.68L1031.54,1288.12z M1057.68,1276.59l8.73,11.39c0.02,0.02,0.04,0.05,0.06,0.07
		l0.01,0.01l0.01,0.01c0.87,1.08,1.76,2.15,2.73,3.14c0.69,0.72,1.43,1.41,2.23,2c0.51,0.37,1.05,0.7,1.6,0.98
		c-0.37-0.21-0.73-0.44-1.08-0.7c-0.81-0.59-1.54-1.28-2.23-2c-0.96-1-1.86-2.06-2.73-3.14l-0.01-0.01l-0.01-0.01
		c-0.02-0.02-0.04-0.05-0.06-0.07l-9.25-12.07V1276.59z M1085.75,1247.82v21.49l0.52,0.66v-22.66L1085.75,1247.82z M1001.59,1251.51
		c0.12,0.05,0.23,0.11,0.34,0.17c0.69,0.38,1.23,0.9,1.7,1.53c1.66,2.2,2.18,4.88,2.18,7.58c0,1.93-0.32,3.78-1.05,5.57
		c-0.51,1.26-1.25,2.35-2.37,3.14c-1.1,0.77-2.4,1.03-3.73,1.03c-1.21,0-2.21-0.25-3.08-0.78c0.74,0.34,1.58,0.5,2.56,0.5
		c1.33,0,2.63-0.25,3.73-1.03c1.13-0.79,1.86-1.88,2.37-3.14c0.73-1.79,1.05-3.64,1.05-5.57c0-2.71-0.52-5.38-2.18-7.58
		C1002.68,1252.37,1002.19,1251.88,1001.59,1251.51 M890.42,1251.51c0.12,0.05,0.23,0.11,0.34,0.17c0.69,0.38,1.23,0.9,1.7,1.53
		c1.66,2.2,2.18,4.88,2.18,7.58c0,1.93-0.32,3.78-1.05,5.57c-0.51,1.26-1.25,2.35-2.37,3.14c-1.1,0.77-2.4,1.03-3.73,1.03
		c-1.21,0-2.21-0.25-3.08-0.78c0.74,0.34,1.58,0.5,2.56,0.5c1.33,0,2.63-0.25,3.73-1.03c1.13-0.79,1.86-1.88,2.37-3.14
		c0.72-1.79,1.05-3.64,1.05-5.57c0-2.71-0.52-5.38-2.18-7.58C891.51,1252.37,891.03,1251.88,890.42,1251.51"/>
	<path class="st1" d="M1107.89,1266.15v-26.85c0-2.57-0.81-4.72-2.44-6.48c-1.63-1.76-3.7-2.63-6.19-2.63c-2.5,0-4.57,0.91-6.22,2.7
		c-1.65,1.82-2.48,3.94-2.48,6.41v29.55c0,7.48,2.57,13.18,7.74,17.11c5.15,3.93,11.54,5.89,19.19,5.89c5.06,0,9.63-0.85,13.72-2.56
		c4.09-1.69,7.32-4.3,9.68-7.78c2.37-3.48,3.56-7.7,3.56-12.67v-29.55c0-2.54-0.83-4.68-2.5-6.44c-1.67-1.78-3.76-2.67-6.3-2.67
		c-2.5,0-4.54,0.89-6.09,2.68c-1.56,1.8-2.33,3.93-2.33,6.43v26.85c0,3.11-1,5.48-3,7.13c-2,1.65-4.26,2.46-6.74,2.46
		c-2.57,0-4.82-0.8-6.72-2.41C1108.86,1271.73,1107.89,1269.32,1107.89,1266.15 M998.14,1275.08c2.52,0,4.69-0.63,6.5-1.91
		c1.8-1.26,3.17-3.02,4.07-5.3c0.93-2.26,1.39-4.7,1.39-7.35c0-4.2-1.06-7.7-3.15-10.48c-2.09-2.8-5.04-4.18-8.81-4.18
		c-3.56,0-6.41,1.41-8.57,4.24c-1,1.41-1.81,3.02-2.43,4.85c-0.61,1.83-0.93,3.68-0.93,5.57c0,3.94,1.09,7.35,3.28,10.24
		C991.68,1273.63,994.55,1275.08,998.14,1275.08 M996.01,1291.85c-5.35,0-10.04-1.46-14.06-4.37c-4.02-2.91-7.19-6.81-9.5-11.72
		c-1.11-2.42-2-4.93-2.63-7.52c-0.63-2.57-0.95-5.17-0.95-7.72c0-3.26,0.35-6.24,1.06-8.94c0.7-2.7,1.8-5.43,3.28-8.13
		c2.24-4.13,5.32-7.5,9.22-10.15c1.96-1.3,3.96-2.33,6.02-3.09c2.07-0.76,4.2-1.13,6.41-1.13c3.8,0,6.94,0.59,9.44,1.78
		c2.48,1.19,4.65,2.83,6.44,4.96c0.69-1.7,1.78-3.02,3.24-3.98c1.46-0.96,3.06-1.44,4.76-1.44c2.35,0,4.39,0.81,6.11,2.43
		c1.72,1.59,2.57,3.83,2.57,6.68v42.29c0,2.17-0.69,4.13-2.04,5.89c-1.35,1.74-3.28,2.76-5.74,3.05c-2.48,0-4.46-0.61-5.91-1.81
		c-1.44-1.2-2.44-2.41-2.98-3.63C1007.25,1289.67,1002.34,1291.85,996.01,1291.85 M886.98,1275.08c2.52,0,4.69-0.63,6.5-1.91
		c1.8-1.26,3.17-3.02,4.07-5.3c0.93-2.26,1.39-4.7,1.39-7.35c0-4.2-1.06-7.7-3.15-10.48c-2.09-2.8-5.04-4.18-8.81-4.18
		c-3.55,0-6.41,1.41-8.57,4.24c-1,1.41-1.82,3.02-2.43,4.85c-0.61,1.83-0.93,3.68-0.93,5.57c0,3.94,1.09,7.35,3.28,10.24
		C880.51,1273.63,883.39,1275.08,886.98,1275.08 M884.85,1291.85c-5.35,0-10.04-1.46-14.06-4.37c-4.02-2.91-7.18-6.81-9.5-11.72
		c-1.11-2.42-2-4.93-2.63-7.52c-0.63-2.57-0.94-5.17-0.94-7.72c0-3.26,0.35-6.24,1.05-8.94c0.7-2.7,1.8-5.43,3.28-8.13
		c2.24-4.13,5.31-7.5,9.22-10.15c1.96-1.3,3.96-2.33,6.02-3.09c2.07-0.76,4.2-1.13,6.41-1.13c3.8,0,6.94,0.59,9.44,1.78
		c2.48,1.19,4.65,2.83,6.44,4.96c0.69-1.7,1.78-3.02,3.24-3.98c1.46-0.96,3.05-1.44,4.76-1.44c2.35,0,4.39,0.81,6.11,2.43
		c1.72,1.59,2.57,3.83,2.57,6.68v42.29c0,2.17-0.68,4.13-2.04,5.89c-1.35,1.74-3.28,2.76-5.74,3.05c-2.48,0-4.46-0.61-5.91-1.81
		c-1.44-1.2-2.44-2.41-2.98-3.63C896.09,1289.67,891.18,1291.85,884.85,1291.85 M858.9,1285.47c0.44-0.91,0.67-1.98,0.67-3.2
		c0-2.69-0.76-4.83-2.28-6.44c-1.52-1.61-3.65-2.41-6.41-2.41h-19.76v-53.18c0-3.26-0.74-5.74-2.24-7.46
		c-1.5-1.72-3.65-2.57-6.43-2.57c-2.54,0-4.72,0.78-6.57,2.33c-1.83,1.56-2.76,3.96-2.76,7.2v61.88c0,2.05,0.81,3.98,2.44,5.78
		c1.63,1.8,3.85,2.68,6.67,2.68h28.92c2.13,0,4.04-0.68,5.7-2.06C857.78,1287.22,858.44,1286.37,858.9,1285.47 M924.29,1219.73
		v61.88c0,2.05,0.82,3.98,2.45,5.78c1.63,1.8,3.85,2.68,6.67,2.68h28.93c2.13,0,4.04-0.68,5.7-2.06c0.91-0.8,1.57-1.65,2.04-2.55
		c0.44-0.91,0.67-1.98,0.67-3.2c0-2.69-0.76-4.83-2.28-6.44c-1.52-1.61-3.65-2.41-6.41-2.41h-19.76v-53.18
		c0-3.26-0.74-5.74-2.24-7.46c-1.5-1.72-3.65-2.57-6.43-2.57c-2.54,0-4.72,0.78-6.57,2.33
		C925.22,1214.08,924.29,1216.49,924.29,1219.73 M1043.9,1204.42c2.35,0,4.37,0.85,6.09,2.56c1.72,1.68,2.57,4.05,2.57,7.09v36.35
		l16.55-16.81c2.5-2.28,4.87-3.41,7.11-3.41c2.5,0,4.55,0.81,6.19,2.46c1.63,1.65,2.44,3.48,2.44,5.5c-0.2,2.39-1.28,4.43-3.18,6.13
		l-12.33,12.31l16.22,20.65c1.63,1.74,2.45,3.67,2.45,5.79c0,2.24-0.96,4.09-2.89,5.54c-1.94,1.44-4.22,2.17-6.87,2.17
		c-1.61-0.18-2.95-0.65-3.95-1.39c-1.02-0.74-2.37-2.17-4.07-4.3l-17.61-22.98h-0.28v19.07c0,2.93-0.89,5.26-2.67,7
		c-1.78,1.72-3.83,2.59-6.18,2.59c-2.28,0-4.28-0.83-5.96-2.5c-1.69-1.67-2.52-3.96-2.52-6.89l0.22-67.83
		c0-2.68,0.87-4.87,2.63-6.55C1039.6,1205.27,1041.62,1204.42,1043.9,1204.42"/>
	<polygon class="st1" points="812.79,1207.57 819.02,1206.26 825.25,1207.57 819.02,1208.87 	"/>
	<polygon class="st1" points="819.02,1213.8 817.61,1207.57 819.02,1201.34 820.43,1207.57 	"/>
	<polygon class="st1" points="924.07,1207.57 929.99,1206.33 935.9,1207.57 929.99,1208.81 	"/>
	<polygon class="st1" points="929.99,1213.48 928.65,1207.57 929.99,1201.65 931.33,1207.57 	"/>
	<polygon class="st1" points="1033.38,1203.21 1037.95,1202.25 1042.51,1203.21 1037.95,1204.16 	"/>
	<polygon class="st1" points="1037.95,1207.77 1036.91,1203.21 1037.95,1198.64 1038.98,1203.21 	"/>
</g>
<g>
	<g>
		<path class="st4" d="M1158.27,1219.65c0-5.8,4.35-9.03,9.03-9.03h27.65c5.69,0,9.03,3.34,9.03,8.36c0,5.24-3.34,8.36-9.03,8.36
			h-18.62v14.38h17.06c5.69,0,9.03,3.23,9.03,8.36c0,5.13-3.34,8.36-9.03,8.36h-17.06v14.83h19.29c5.69,0,9.03,3.12,9.03,8.36
			c0,5.02-3.34,8.36-9.03,8.36h-28.32c-4.68,0-9.03-3.23-9.03-9.03V1219.65z"/>
		<path class="st4" d="M1222.94,1258.79l-9.03-9.59c-5.02-5.35-6.69-7.02-6.69-10.15c0-5.57,4.24-9.03,8.36-9.03
			c4.01,0,6.02,1,8.59,4.24l9.25,11.48l9.25-11.48c2.56-3.23,4.57-4.24,8.58-4.24c4.13,0,8.36,3.46,8.36,9.03
			c0,3.12-1.67,4.79-6.69,10.15l-9.03,9.59l14.83,15.72c1.45,1.67,3.46,3.79,3.46,7.47c0,5.35-4.13,8.7-8.92,8.7
			c-3.68,0-5.69-2.12-7.69-4.46l-12.15-14.16l-12.15,14.16c-2.01,2.34-4.01,4.46-7.69,4.46c-4.79,0-8.92-3.34-8.92-8.7
			c0-3.68,2.01-5.8,3.46-7.47L1222.94,1258.79z"/>
		<path class="st4" d="M1264.97,1239.05c0-5.02,3.57-9.03,8.7-9.03c4.24,0,6.91,2.9,8.14,5.57c3.9-4.79,8.36-6.69,14.94-6.69
			c15.16,0,26.87,13.94,26.87,31.44s-11.71,31.44-26.87,31.44c-7.47,0-11.26-2.34-14.38-4.91v18.84c0,5.02-3.57,9.03-8.7,9.03
			s-8.7-4.01-8.7-9.03V1239.05z M1306.23,1260.35c0-8.03-4.24-14.72-11.93-14.72s-11.93,6.69-11.93,14.72
			c0,8.03,4.24,14.72,11.93,14.72S1306.23,1268.37,1306.23,1260.35z"/>
		<path class="st4" d="M1329.31,1239.05c0-5.02,3.57-9.03,8.7-9.03c4.68,0,7.58,3.01,8.7,5.57c2.9-3.46,7.14-6.69,12.04-6.69
			c4.46,0,8.92,3.57,8.92,9.03c0,6.02-4.57,7.47-10.93,9.37c-7.58,2.23-10.03,4.24-10.03,13.16v21.18c0,5.02-3.57,9.03-8.7,9.03
			s-8.7-4.01-8.7-9.03V1239.05z"/>
		<path class="st4" d="M1384.94,1266.03c0,3.68,2.79,9.7,13.94,9.7c8.58,0,13.83-5.46,17.84-5.46c3.9,0,7.25,3.01,7.25,7.47
			c0,8.47-14.16,14.05-27.32,14.05c-18.73,0-30.44-13.94-30.44-31.44c0-16.72,12.6-31.44,30.44-31.44
			c17.17,0,28.21,14.38,28.21,29.55c0,6.13-2.9,7.58-8.47,7.58H1384.94z M1407.46,1254.1c0-3.9-4.46-10.48-11.26-10.48
			c-6.8,0-11.26,6.58-11.26,10.48H1407.46z"/>
		<path class="st4" d="M1434.67,1271.38c5.46,0,9.25,5.02,16.72,5.02c3.57,0,4.91-1.67,4.91-3.46c0-3.57-3.79-3.9-13.49-7.92
			c-8.92-3.68-13.71-7.02-13.71-16.39c0-9.92,8.47-19.73,22.41-19.73c7.02,0,20.07,3.34,20.07,12.38c0,4.35-3.12,7.36-7.25,7.36
			c-3.46,0-8.58-4.35-13.94-4.35c-2.34,0-4.57,1.11-4.57,3.68c0,6.8,27.21,5.24,27.21,24.31c0,12.26-10.37,19.51-22.3,19.51
			c-10.93,0-23.19-4.35-23.19-12.04C1427.53,1274.84,1430.77,1271.38,1434.67,1271.38z"/>
		<path class="st4" d="M1482.17,1271.38c5.46,0,9.25,5.02,16.72,5.02c3.57,0,4.91-1.67,4.91-3.46c0-3.57-3.79-3.9-13.49-7.92
			c-8.92-3.68-13.71-7.02-13.71-16.39c0-9.92,8.47-19.73,22.41-19.73c7.02,0,20.07,3.34,20.07,12.38c0,4.35-3.12,7.36-7.25,7.36
			c-3.46,0-8.58-4.35-13.94-4.35c-2.34,0-4.57,1.11-4.57,3.68c0,6.8,27.21,5.24,27.21,24.31c0,12.26-10.37,19.51-22.3,19.51
			c-10.93,0-23.19-4.35-23.19-12.04C1475.03,1274.84,1478.26,1271.38,1482.17,1271.38z"/>
	</g>
	<path class="st2" d="M1535.8,1208.96l-8.71-12.21v97.74c0,1.58-1.28,2.86-2.86,2.86H1273.6c-4.8,0-8.7,3.89-8.7,8.7l0,0
		c0,4.8,3.89,8.7,8.7,8.7h261.9h0.29h0.29c4.65,0,8.41-3.77,8.41-8.41v-0.29v0v-109.28L1535.8,1208.96z"/>
	<g>
		<path class="st2" d="M1547.84,1186.19c0,1.12-0.15,2.22-0.45,3.25c-0.34,1.23-0.87,2.37-1.56,3.41l-0.05,0.08l-0.43,0.59
			l-9.55,13.41l-9.54-13.38l-0.45-0.62l-0.06-0.1c-0.69-1.03-1.21-2.17-1.55-3.39c-0.3-1.03-0.45-2.13-0.45-3.25
			c0-6.65,5.39-12.05,12.05-12.05C1542.45,1174.14,1547.84,1179.54,1547.84,1186.19z"/>
		<circle class="st1" cx="1535.79" cy="1186.19" r="7.19"/>
	</g>
	<g>
		<g>
			<linearGradient id="SVGID_1_" gradientUnits="userSpaceOnUse" x1="1536.2166" y1="1211.6219" x2="1282.3599" y2="1211.6219">
				<stop  offset="0" style="stop-color:#FFFFFF"/>
				<stop  offset="0.127" style="stop-color:#FBFCFD"/>
				<stop  offset="0.2587" style="stop-color:#EEF1F8"/>
				<stop  offset="0.3926" style="stop-color:#DAE0EE"/>
				<stop  offset="0.528" style="stop-color:#BDC9E2"/>
				<stop  offset="0.6646" style="stop-color:#97AAD1"/>
				<stop  offset="0.8023" style="stop-color:#6984BD"/>
				<stop  offset="0.9382" style="stop-color:#3459A5"/>
				<stop  offset="1" style="stop-color:#194399"/>
			</linearGradient>
			<line class="st5" x1="1535.79" y1="1210.56" x2="1535.79" y2="1212.68"/>
			<linearGradient id="SVGID_2_" gradientUnits="userSpaceOnUse" x1="1536.2166" y1="1261.8273" x2="1282.3599" y2="1261.8273">
				<stop  offset="0" style="stop-color:#FFFFFF"/>
				<stop  offset="0.127" style="stop-color:#FBFCFD"/>
				<stop  offset="0.2587" style="stop-color:#EEF1F8"/>
				<stop  offset="0.3926" style="stop-color:#DAE0EE"/>
				<stop  offset="0.528" style="stop-color:#BDC9E2"/>
				<stop  offset="0.6646" style="stop-color:#97AAD1"/>
				<stop  offset="0.8023" style="stop-color:#6984BD"/>
				<stop  offset="0.9382" style="stop-color:#3459A5"/>
				<stop  offset="1" style="stop-color:#194399"/>
			</linearGradient>
			<path class="st6" d="M1535.79,1216.9v80.44c0,0,0,5.15-1.91,6.75c-2.47,2.06-6.79,2.24-6.79,2.24h-240.5"/>
			<linearGradient id="SVGID_3_" gradientUnits="userSpaceOnUse" x1="1536.2167" y1="1306.326" x2="1282.3599" y2="1306.326">
				<stop  offset="0" style="stop-color:#FFFFFF"/>
				<stop  offset="0.127" style="stop-color:#FBFCFD"/>
				<stop  offset="0.2587" style="stop-color:#EEF1F8"/>
				<stop  offset="0.3926" style="stop-color:#DAE0EE"/>
				<stop  offset="0.528" style="stop-color:#BDC9E2"/>
				<stop  offset="0.6646" style="stop-color:#97AAD1"/>
				<stop  offset="0.8023" style="stop-color:#6984BD"/>
				<stop  offset="0.9382" style="stop-color:#3459A5"/>
				<stop  offset="1" style="stop-color:#194399"/>
			</linearGradient>
			<line class="st7" x1="1284.49" y1="1306.33" x2="1282.36" y2="1306.33"/>
		</g>
	</g>
	<linearGradient id="SVGID_4_" gradientUnits="userSpaceOnUse" x1="1527.8589" y1="1248.3839" x2="1282.3599" y2="1248.3839">
		<stop  offset="0" style="stop-color:#FFFFFF"/>
		<stop  offset="0.127" style="stop-color:#FBFCFD"/>
		<stop  offset="0.2587" style="stop-color:#EEF1F8"/>
		<stop  offset="0.3926" style="stop-color:#DAE0EE"/>
		<stop  offset="0.528" style="stop-color:#BDC9E2"/>
		<stop  offset="0.6646" style="stop-color:#97AAD1"/>
		<stop  offset="0.8023" style="stop-color:#6984BD"/>
		<stop  offset="0.9382" style="stop-color:#3459A5"/>
		<stop  offset="1" style="stop-color:#194399"/>
	</linearGradient>
	<path class="st8" d="M1282.36,1297.91h242.19c0,0,3.11,0.21,3.13-2.57s0.03-96.62,0.03-96.62"/>
	<linearGradient id="SVGID_5_" gradientUnits="userSpaceOnUse" x1="1544.0615" y1="1256.2809" x2="1282.3599" y2="1256.2809">
		<stop  offset="0" style="stop-color:#FFFFFF"/>
		<stop  offset="0.127" style="stop-color:#FBFCFD"/>
		<stop  offset="0.2587" style="stop-color:#EEF1F8"/>
		<stop  offset="0.3926" style="stop-color:#DAE0EE"/>
		<stop  offset="0.528" style="stop-color:#BDC9E2"/>
		<stop  offset="0.6646" style="stop-color:#97AAD1"/>
		<stop  offset="0.8023" style="stop-color:#6984BD"/>
		<stop  offset="0.9382" style="stop-color:#3459A5"/>
		<stop  offset="1" style="stop-color:#194399"/>
	</linearGradient>
	<path class="st9" d="M1282.36,1314.07h252.58c0.86,0,3.55,0,5.55-1.25c2.2-1.37,3.37-4.36,3.39-6.47
		c0.03-2.77,0.03-108.01,0.03-108.01"/>
</g>
<g>
	<rect x="870.05" y="1250.14" class="st10" width="5.33" height="89.33"/>
</g>
<g>
</g>
<g>
</g>
<g>
</g>
<g>
</g>
<g>
</g>
<g>
</g>
</svg>
